<?xml version="1.0" standalone="no"?>
<!DOCTYPE svg PUBLIC "-//W3C//DTD SVG 20010904//EN"
 "http://www.w3.org/TR/2001/REC-SVG-20010904/DTD/svg10.dtd">
<svg version="1.0" xmlns="http://www.w3.org/2000/svg"
 width="160.000000pt" height="151.000000pt" viewBox="0 0 160.000000 151.000000"
 preserveAspectRatio="xMidYMid meet">

<g transform="translate(0.000000,151.000000) scale(0.100000,-0.100000)"
fill="#000000" stroke="none">
<path d="M715 1493 c-250 -29 -455 -147 -580 -333 -169 -253 -162 -585 18
-817 125 -161 267 -250 475 -299 104 -25 293 -15 397 20 276 94 461 287 521
544 20 82 14 282 -10 356 -59 182 -205 354 -373 439 -143 73 -311 107 -448 90z
m185 -258 c45 -10 87 -13 136 -9 81 7 114 0 114 -23 0 -9 8 -40 17 -70 16 -51
16 -55 -1 -86 -11 -18 -31 -45 -45 -60 -22 -24 -26 -39 -29 -107 -4 -76 -2
-83 43 -184 l47 -106 -21 -35 c-31 -53 -129 -172 -147 -179 -9 -3 -36 -6 -60
-6 -55 0 -91 -18 -127 -64 -36 -46 -56 -45 -86 3 -26 42 -71 64 -124 61 -53
-3 -58 -1 -89 33 -37 38 -108 133 -125 165 -10 19 -9 28 7 56 60 108 93 251
70 311 -5 14 -28 50 -51 80 l-41 54 18 53 c10 29 18 61 19 71 3 31 25 36 120
31 72 -4 104 -1 160 15 75 21 94 21 195 -4z"/>
<path d="M780 1229 c0 -5 -4 -8 -9 -4 -5 3 -25 -1 -43 -9 -18 -8 -45 -17 -60
-21 -16 -3 -28 -10 -28 -15 0 -11 59 -4 107 13 25 8 48 8 95 -2 96 -21 198
-23 198 -6 0 11 -6 12 -24 5 -13 -5 -26 -6 -29 -4 -3 3 -22 7 -44 9 -58 6 -93
14 -124 30 -33 18 -39 18 -39 4z"/>
<path d="M1068 1202 c-33 -7 -20 -29 13 -24 21 3 30 1 25 -6 -3 -6 -2 -13 4
-17 6 -4 8 -10 5 -15 -3 -5 -1 -11 4 -14 5 -4 8 -24 6 -46 -3 -22 0 -40 5 -40
6 0 10 7 10 15 0 8 5 15 11 15 8 0 8 4 1 13 -6 6 -11 15 -11 20 -1 4 -2 9 -2
12 -2 8 -5 19 -13 53 -5 22 -13 32 -21 28 -8 -3 -15 -2 -17 2 -2 4 -11 6 -20
4z"/>
<path d="M452 1181 c1 -9 -2 -27 -6 -40 -6 -17 -5 -22 5 -19 13 4 15 8 18 44
1 12 8 15 26 12 15 -3 25 -1 25 6 0 7 -15 12 -34 13 -26 0 -34 -3 -34 -16z"/>
<path d="M530 1180 c0 -5 5 -10 10 -10 6 0 10 5 10 10 0 6 -4 10 -10 10 -5 0
-10 -4 -10 -10z"/>
<path d="M560 1181 c0 -6 5 -13 10 -16 6 -3 10 1 10 9 0 9 -4 16 -10 16 -5 0
-10 -4 -10 -9z"/>
<path d="M591 1174 c0 -11 3 -14 6 -6 3 7 2 16 -1 19 -3 4 -6 -2 -5 -13z"/>
<path d="M610 1181 c0 -6 5 -13 10 -16 6 -3 10 1 10 9 0 9 -4 16 -10 16 -5 0
-10 -4 -10 -9z"/>
<path d="M745 1157 c-12 -7 -63 -12 -132 -12 l-113 0 -10 -31 c-9 -27 -7 -37
14 -70 14 -22 30 -45 36 -52 6 -7 14 -35 17 -62 3 -28 7 -50 10 -50 12 0 72
74 75 93 3 19 9 22 43 22 l40 0 -3 37 c-4 45 24 78 66 78 45 0 81 -54 62 -90
-9 -16 -6 -21 14 -26 14 -3 29 -3 35 0 17 11 41 -6 41 -30 0 -13 4 -24 10 -24
5 0 20 -16 33 -36 l25 -35 7 48 c6 44 56 150 77 164 4 3 3 19 -3 36 l-10 31
-77 -5 c-53 -4 -96 0 -138 11 -73 19 -92 19 -119 3z"/>
<path d="M428 1092 c-6 -20 18 -60 28 -49 4 3 3 14 -1 24 -5 10 -7 24 -6 31 3
19 -16 14 -21 -6z"/>
<path d="M790 1090 c13 -9 13 -10 0 -10 -8 0 -26 -10 -39 -20 -22 -19 -22 -21
-7 -44 12 -18 12 -26 3 -29 -6 -3 11 -6 38 -6 30 0 45 3 37 8 -10 6 -10 10 3
21 22 18 19 56 -7 74 -12 9 -27 16 -33 16 -5 0 -3 -5 5 -10z m17 -40 c2 -8 -1
-22 -6 -30 -8 -12 -13 -12 -30 4 -16 14 -17 21 -8 32 15 17 41 14 44 -6z"/>
<path d="M1091 1034 c-7 -9 -11 -18 -8 -21 3 -3 -3 -14 -13 -26 -11 -11 -16
-25 -13 -31 4 -6 8 -5 11 4 3 8 10 20 16 27 33 37 38 45 30 53 -5 5 -15 2 -23
-6z"/>
<path d="M457 1034 c-4 -4 2 -14 13 -24 10 -9 22 -28 25 -43 4 -15 11 -24 16
-21 15 9 10 29 -11 54 -11 13 -20 27 -20 32 0 10 -14 11 -23 2z"/>
<path d="M660 963 c0 -18 5 -20 49 -15 52 5 79 -12 47 -30 -14 -8 -15 -13 -5
-24 9 -11 9 -21 1 -39 -8 -17 -8 -25 -1 -25 14 0 1 -79 -16 -100 -22 -28 -26
-40 -13 -40 22 0 48 55 48 99 0 24 5 41 11 41 19 0 5 -94 -20 -129 -12 -17
-19 -31 -14 -31 4 0 -1 -8 -12 -16 -20 -16 -20 -16 3 -9 16 5 22 2 22 -9 0 -9
-6 -16 -12 -16 -9 0 -8 -4 2 -10 12 -8 16 -2 21 28 6 37 6 37 8 5 1 -24 5 -31
16 -27 8 4 15 1 15 -6 0 -6 4 -9 9 -6 5 3 7 15 4 26 -3 11 -1 26 5 33 7 8 6
18 -4 31 -21 30 -16 44 6 18 11 -13 25 -22 32 -20 8 3 3 14 -15 32 -20 20 -27
37 -27 66 0 21 5 40 11 42 8 3 8 10 -2 27 -12 20 -12 24 5 37 19 13 11 20 -16
15 -5 0 -8 8 -8 19 0 16 7 20 38 20 21 0 43 -5 49 -11 8 -8 13 -5 18 11 9 29
4 32 -33 19 -34 -11 -176 -8 -204 5 -14 6 -18 4 -18 -11z m138 -68 c1 -25 -3
-45 -8 -45 -6 0 -10 23 -10 51 0 62 17 57 18 -6z m9 -257 c-3 -8 -6 -5 -6 6
-1 11 2 17 5 13 3 -3 4 -12 1 -19z"/>
<path d="M517 933 c-4 -3 -7 -11 -7 -17 0 -6 5 -5 12 2 6 6 9 14 7 17 -3 3 -9
2 -12 -2z"/>
<path d="M1045 930 c3 -5 11 -10 16 -10 6 0 7 5 4 10 -3 6 -11 10 -16 10 -6 0
-7 -4 -4 -10z"/>
<path d="M698 918 c9 -9 15 -9 24 0 9 9 7 12 -12 12 -19 0 -21 -3 -12 -12z"/>
<path d="M858 918 c9 -9 15 -9 24 0 9 9 7 12 -12 12 -19 0 -21 -3 -12 -12z"/>
<path d="M625 911 c-3 -6 3 -14 12 -20 14 -8 15 -10 3 -11 -12 0 -13 -2 -1 -9
11 -7 9 -10 -8 -16 -16 -5 -20 -12 -16 -26 4 -12 2 -19 -6 -19 -7 0 -9 -3 -6
-7 4 -3 15 1 25 10 25 23 31 14 25 -34 -5 -31 -2 -39 10 -39 9 0 18 -8 20 -17
3 -10 5 0 6 22 1 29 4 36 10 25 6 -8 7 -19 5 -25 -3 -5 1 -2 9 7 8 10 18 14
22 10 5 -4 5 1 2 11 -4 10 -7 24 -7 30 0 7 -10 17 -22 22 -27 12 -37 45 -14
45 19 0 21 14 4 27 -20 16 -66 24 -73 14z m55 -156 c0 -5 -5 -3 -10 5 -5 8
-10 20 -10 25 0 6 5 3 10 -5 5 -8 10 -19 10 -25z"/>
<path d="M912 913 c-27 -5 -41 -32 -22 -43 17 -11 5 -41 -20 -47 -11 -3 -20
-11 -20 -18 0 -8 -3 -22 -7 -32 -6 -16 -5 -16 10 -4 16 12 17 12 11 -5 -5 -18
-5 -18 10 0 15 19 16 18 17 -20 1 -23 4 -30 6 -17 4 19 8 21 22 13 16 -8 18
-5 15 21 -2 17 -6 35 -9 40 -13 20 7 30 26 13 11 -9 22 -14 26 -11 3 4 1 7 -6
7 -8 0 -10 7 -6 20 4 12 2 20 -5 20 -6 0 -8 -5 -4 -12 4 -7 3 -8 -5 -4 -6 4
-9 12 -6 17 4 5 0 9 -7 10 -7 0 -3 4 10 10 24 9 22 29 -4 29 -8 0 -12 5 -9 10
3 6 5 9 3 9 -2 -1 -13 -4 -26 -6z m45 -29 c-3 -3 -12 -4 -19 -1 -8 3 -5 6 6 6
11 1 17 -2 13 -5z"/>
<path d="M1040 901 c0 -5 5 -13 10 -16 6 -3 10 -2 10 4 0 5 -4 13 -10 16 -5 3
-10 2 -10 -4z"/>
<path d="M510 890 c0 -5 5 -10 10 -10 6 0 10 5 10 10 0 6 -4 10 -10 10 -5 0
-10 -4 -10 -10z"/>
<path d="M515 859 c-10 -15 3 -25 16 -12 7 7 7 13 1 17 -6 3 -14 1 -17 -5z"/>
<path d="M852 858 c5 -15 28 -23 28 -10 0 5 -7 13 -16 16 -10 4 -14 1 -12 -6z"/>
<path d="M1040 860 c0 -5 5 -10 10 -10 6 0 10 5 10 10 0 6 -4 10 -10 10 -5 0
-10 -4 -10 -10z"/>
<path d="M700 850 c0 -5 5 -10 10 -10 6 0 10 5 10 10 0 6 -4 10 -10 10 -5 0
-10 -4 -10 -10z"/>
<path d="M510 820 c0 -5 5 -10 10 -10 6 0 10 5 10 10 0 6 -4 10 -10 10 -5 0
-10 -4 -10 -10z"/>
<path d="M1045 820 c3 -5 10 -10 16 -10 5 0 9 5 9 10 0 6 -7 10 -16 10 -8 0
-12 -4 -9 -10z"/>
<path d="M632 790 c-6 -16 -7 -32 -3 -34 4 -3 8 0 8 7 0 7 3 22 7 35 11 33 0
27 -12 -8z"/>
<path d="M555 785 c-4 -11 -13 -33 -20 -50 -60 -145 -60 -141 -40 -172 46 -70
90 -113 115 -113 15 0 30 3 33 6 9 10 -54 80 -69 76 -18 -4 -37 63 -30 103 4
18 16 45 27 59 19 24 19 28 5 68 -12 36 -16 40 -21 23z"/>
<path d="M1050 790 c0 -5 5 -10 11 -10 5 0 7 5 4 10 -3 6 -8 10 -11 10 -2 0
-4 -4 -4 -10z"/>
<path d="M500 780 c0 -5 4 -10 9 -10 6 0 13 5 16 10 3 6 -1 10 -9 10 -9 0 -16
-4 -16 -10z"/>
<path d="M940 779 c0 -4 6 -9 13 -12 8 -3 14 0 14 7 0 7 -6 13 -14 13 -7 0
-13 -4 -13 -8z"/>
<path d="M1001 759 c-12 -28 -11 -36 8 -78 12 -25 23 -60 23 -77 1 -33 -17
-74 -33 -74 -11 0 -69 -54 -69 -64 0 -3 15 -6 33 -6 36 0 65 24 111 96 l26 40
-24 50 c-13 27 -29 67 -36 89 -17 55 -23 59 -39 24z"/>
<path d="M495 750 c-3 -5 -2 -10 4 -10 5 0 13 5 16 10 3 6 2 10 -4 10 -5 0
-13 -4 -16 -10z"/>
<path d="M1060 750 c0 -5 5 -10 10 -10 6 0 10 5 10 10 0 6 -4 10 -10 10 -5 0
-10 -4 -10 -10z"/>
<path d="M485 719 c-10 -15 3 -25 16 -12 7 7 7 13 1 17 -6 3 -14 1 -17 -5z"/>
<path d="M1070 720 c0 -5 7 -10 16 -10 8 0 12 5 9 10 -3 6 -10 10 -16 10 -5 0
-9 -4 -9 -10z"/>
<path d="M577 673 c-9 -18 -17 -40 -16 -50 1 -12 3 -10 8 7 l7 25 7 -28 c8
-30 1 -51 -14 -42 -5 4 -9 -1 -9 -10 0 -12 6 -15 20 -10 14 4 20 2 20 -9 0
-28 49 -72 118 -108 l70 -36 58 29 c67 34 119 78 129 109 4 13 12 19 21 16 8
-3 14 -1 14 3 0 5 -6 11 -13 14 -9 3 -12 16 -9 36 2 17 8 28 13 25 12 -7 11 0
-3 31 -15 33 -25 32 -25 -5 0 -17 -9 -40 -21 -53 -26 -27 -28 -39 -7 -31 21 9
19 -19 -3 -39 -28 -25 -67 -21 -91 9 -11 15 -18 31 -14 38 11 18 -51 -25 -65
-46 -7 -10 -20 -18 -28 -18 -8 0 -14 -9 -14 -20 0 -25 17 -26 23 -2 4 16 5 16
6 0 0 -10 8 -18 16 -18 9 0 12 6 9 15 -4 10 0 15 11 15 9 0 14 -4 10 -9 -3 -5
-1 -12 4 -15 5 -4 11 2 13 11 3 15 5 14 10 -4 6 -22 3 -23 -55 -23 l-62 -1 37
-18 c35 -18 39 -18 70 -2 26 13 32 22 30 41 -2 15 -12 30 -24 35 -23 11 -37
35 -20 35 19 0 68 -57 68 -78 0 -15 -10 -25 -30 -32 -16 -6 -38 -18 -48 -27
-10 -9 -18 -11 -18 -5 0 6 -16 16 -35 23 -28 10 -35 18 -35 39 1 27 31 70 49
70 8 0 8 6 -1 19 -11 18 -13 17 -27 -13 -20 -40 -69 -48 -100 -17 -25 25 -27
41 -4 41 14 0 14 2 -2 20 -10 11 -21 37 -25 58 l-6 37 -17 -32z"/>
<path d="M619 690 c-3 -29 2 -45 23 -74 17 -23 19 -33 10 -47 -9 -15 -8 -19 8
-24 29 -9 60 12 60 40 0 21 -5 25 -29 25 -24 0 -31 7 -49 48 -12 26 -22 40
-23 32z"/>
<path d="M1080 690 c0 -5 7 -10 16 -10 8 0 12 5 9 10 -3 6 -10 10 -16 10 -5 0
-9 -4 -9 -10z"/>
<path d="M462 670 c-10 -16 -10 -20 1 -20 6 0 18 9 25 20 10 16 10 20 -1 20
-6 0 -18 -9 -25 -20z"/>
<path d="M928 650 c-13 -31 -22 -40 -41 -40 -32 0 -43 -27 -21 -51 21 -23 34
-24 60 -3 10 8 14 13 8 10 -23 -12 -22 23 2 55 23 32 32 69 17 69 -5 0 -16
-18 -25 -40z"/>
<path d="M656 673 c6 -4 15 -17 21 -27 10 -19 11 -19 21 1 8 14 8 20 -1 20 -7
0 -21 4 -32 8 -11 4 -15 3 -9 -2z"/>
<path d="M895 667 c-10 -8 -15 -19 -11 -26 6 -9 13 -6 27 10 10 12 19 24 19
26 0 7 -17 2 -35 -10z"/>
<path d="M1095 660 c3 -5 10 -10 16 -10 5 0 9 5 9 10 0 6 -7 10 -16 10 -8 0
-12 -4 -9 -10z"/>
<path d="M830 651 c0 -5 7 -11 15 -15 8 -3 15 -1 15 3 0 5 -7 11 -15 15 -8 3
-15 1 -15 -3z"/>
<path d="M1110 630 c0 -5 7 -10 16 -10 8 0 12 5 9 10 -3 6 -10 10 -16 10 -5 0
-9 -4 -9 -10z"/>
<path d="M445 620 c4 -6 11 -8 16 -5 14 9 11 15 -7 15 -8 0 -12 -5 -9 -10z"/>
<path d="M425 600 c-3 -5 1 -10 10 -10 9 0 13 5 10 10 -3 6 -8 10 -10 10 -2 0
-7 -4 -10 -10z"/>
<path d="M1130 600 c0 -5 5 -10 10 -10 6 0 10 5 10 10 0 6 -4 10 -10 10 -5 0
-10 -4 -10 -10z"/>
<path d="M435 569 c-10 -15 3 -25 16 -12 7 7 7 13 1 17 -6 3 -14 1 -17 -5z"/>
<path d="M1120 571 c0 -6 5 -13 10 -16 6 -3 10 1 10 9 0 9 -4 16 -10 16 -5 0
-10 -4 -10 -9z"/>
<path d="M1100 552 c0 -7 -11 -25 -25 -40 -14 -15 -25 -31 -25 -37 0 -5 -14
-21 -30 -34 -17 -13 -30 -28 -30 -35 0 -6 4 -5 9 3 5 7 14 10 20 7 6 -4 11 -2
11 4 0 6 11 22 25 36 14 14 25 30 25 36 0 6 10 19 22 30 16 14 19 21 10 30 -9
9 -12 9 -12 0z"/>
<path d="M458 545 c-9 -9 52 -86 63 -79 5 3 3 13 -3 24 -7 10 -16 16 -20 14
-4 -3 -8 2 -8 11 0 9 -4 14 -9 10 -5 -3 -11 2 -13 11 -2 9 -6 13 -10 9z"/>
<path d="M525 450 c-6 -9 1 -14 18 -11 4 0 7 -6 7 -16 0 -9 3 -13 7 -10 3 4
12 -1 19 -11 8 -10 14 -12 14 -5 0 11 -45 63 -55 63 -2 0 -7 -4 -10 -10z"/>
<path d="M600 416 c0 -9 5 -16 10 -16 6 0 10 4 10 9 0 6 -4 13 -10 16 -5 3
-10 -1 -10 -9z"/>
<path d="M911 414 c0 -11 3 -14 6 -6 3 7 2 16 -1 19 -3 4 -6 -2 -5 -13z"/>
<path d="M935 421 c-12 -11 -3 -21 17 -18 28 5 36 26 8 24 -11 -1 -23 -3 -25
-6z"/>
<path d="M650 411 c0 -6 5 -13 10 -16 6 -3 10 1 10 9 0 9 -4 16 -10 16 -5 0
-10 -4 -10 -9z"/>
<path d="M680 401 c0 -25 6 -27 13 -6 4 8 2 17 -3 20 -6 4 -10 -3 -10 -14z"/>
<path d="M880 405 c0 -8 5 -15 10 -15 6 0 10 7 10 15 0 8 -4 15 -10 15 -5 0
-10 -7 -10 -15z"/>
<path d="M710 385 c0 -8 5 -15 10 -15 6 0 10 7 10 15 0 8 -4 15 -10 15 -5 0
-10 -7 -10 -15z"/>
<path d="M850 384 c0 -8 5 -12 10 -9 6 3 10 10 10 16 0 5 -4 9 -10 9 -5 0 -10
-7 -10 -16z"/>
<path d="M736 371 c-5 -7 -5 -16 1 -20 5 -3 18 -19 30 -34 12 -16 24 -23 28
-17 8 13 -4 32 -16 25 -5 -4 -9 1 -9 9 0 9 -4 16 -9 16 -5 0 -11 8 -13 18 -3
13 -5 14 -12 3z"/>
<path d="M812 360 c-15 -24 -15 -30 -2 -30 6 0 10 7 10 16 0 8 5 12 10 9 6 -3
10 1 10 9 0 22 -13 20 -28 -4z"/>
</g>
</svg>
